# xmcd
# 
# Track frame offsets:
#     150
#     21212
#     40562
#     67337
#     96812
#     118037
#     134612
#     162587
#     184337
#     204212
#     218987
#     238637
#     259187
# 
# Disc length: 3724
# 
# Revision: 5
# Processed by: cddbd v1.5.2PL0 Copyright (c) Steve Scherf et al.
# Submitted via: fre:ac v1.0.31
# 
DISCID=c20e8a0d
DTITLE=Blues - This Ain't No Tribute:  Paint It, Blue: Songs Of The Rolling Stones Disc 1
DYEAR=1997
DGENRE=Blues
TTITLE0=Luther Allison - You Can't Always Get What You Want
TTITLE1=Johnny Copeland - Tumblin' Dice (ft The Yahoos, Derek Trucks and Shemekia Copeland)
TTITLE2=Junior Wells - (I Can't Get No) Satisfaction (ft Bob Margolin)
TTITLE3=Otis Clay - Wild Horses
TTITLE4=Taj Mahal - Honky Tonk Women (ft James Cotton)
TTITLE5=Alvin "Youngblood" Hart - Sway
TTITLE6=Clarence "Gatemouth" Brown - Ventilator Blues (ft Sonny Landreth)
TTITLE7=The Holmes Brothers - Beast of Burden
TTITLE8=Lucky Peterson - Under My Thumb
TTITLE9=Bobby Womack - It's All Over Now
TTITLE10=Larry McCray - Midnight Rambler
TTITLE11=Joe Louis Walker - Heart of Stone
TTITLE12=Alvin "Youngblood" Hart - Moonlight Mile
EXTD=
EXTT0=
EXTT1=
EXTT2=
EXTT3=
EXTT4=
EXTT5=
EXTT6=
EXTT7=
EXTT8=
EXTT9=
EXTT10=
EXTT11=
EXTT12=
PLAYORDER=
